<svg width="32" height="32" viewBox="0 0 32 32" fill="none" xmlns="http://www.w3.org/2000/svg">
<rect width="32" height="32" rx="16" fill="#060631"/>
<path d="M10.0327 10.0492C10.1993 9.88256 10.4254 9.78894 10.6611 9.78894C10.8968 9.78894 11.1229 9.88256 11.2895 10.0492L15.9944 14.7541L20.6993 10.0492C20.7813 9.9643 20.8794 9.89658 20.9879 9.85C21.0963 9.80341 21.2129 9.77889 21.331 9.77787C21.449 9.77684 21.566 9.79933 21.6753 9.84402C21.7845 9.88872 21.8838 9.95472 21.9672 10.0382C22.0507 10.1216 22.1167 10.2209 22.1614 10.3301C22.2061 10.4394 22.2286 10.5564 22.2275 10.6744C22.2265 10.7925 22.202 10.9091 22.1554 11.0176C22.1088 11.126 22.0411 11.2241 21.9562 11.3061L17.2513 16.011L21.9562 20.7159C22.1181 20.8835 22.2077 21.108 22.2057 21.3411C22.2037 21.5742 22.1102 21.7971 21.9454 21.9619C21.7806 22.1267 21.5576 22.2202 21.3246 22.2222C21.0915 22.2243 20.867 22.1347 20.6993 21.9728L15.9944 17.2679L11.2895 21.9728C11.1219 22.1347 10.8974 22.2243 10.6643 22.2222C10.4312 22.2202 10.2083 22.1267 10.0435 21.9619C9.87868 21.7971 9.78519 21.5742 9.78317 21.3411C9.78114 21.108 9.87074 20.8835 10.0327 20.7159L14.7375 16.011L10.0327 11.3061C9.86601 11.1394 9.7724 10.9133 9.7724 10.6776C9.7724 10.4419 9.86601 10.2159 10.0327 10.0492Z" fill="white"/>
</svg>
