<svg width="94" height="94" viewBox="0 0 94 94" fill="none" xmlns="http://www.w3.org/2000/svg">
<g clip-path="url(#clip0_60_198)">
<path d="M38.0477 8.95238C36.7794 8.95238 35.7171 8.52266 34.8606 7.66323C34.0042 6.8038 33.5745 5.74146 33.5715 4.47619C33.5685 3.21092 33.9982 2.14857 34.8606 1.28914C35.723 0.429714 36.7854 0 38.0477 0H55.9524C57.2207 0 58.2845 0.429714 59.1439 1.28914C60.0034 2.14857 60.4316 3.21092 60.4286 4.47619C60.4256 5.74146 59.9959 6.8053 59.1395 7.66771C58.283 8.53012 57.2207 8.95834 55.9524 8.95238H38.0477ZM47 58.1904C48.2683 58.1904 49.3321 57.7607 50.1916 56.9013C51.051 56.0419 51.4792 54.9795 51.4762 53.7143V35.8095C51.4762 34.5412 51.0465 33.4789 50.1871 32.6225C49.3277 31.766 48.2653 31.3363 47 31.3333C45.7348 31.3303 44.6724 31.76 43.813 32.6225C42.9536 33.4849 42.5239 34.5472 42.5239 35.8095V53.7143C42.5239 54.9825 42.9536 56.0463 43.813 56.9058C44.6724 57.7652 45.7348 58.1934 47 58.1904ZM47 93.9999C41.4794 93.9999 36.2751 92.9376 31.3871 90.8129C26.4991 88.6882 22.2288 85.7966 18.5763 82.138C14.9237 78.4795 12.0336 74.2077 9.90588 69.3227C7.7782 64.4377 6.71436 59.2349 6.71436 53.7143C6.71436 48.1936 7.7782 42.9893 9.90588 38.1013C12.0336 33.2133 14.9237 28.943 18.5763 25.2905C22.2288 21.6379 26.5006 18.7478 31.3916 16.6201C36.2826 14.4924 41.4854 13.4286 47 13.4286C51.6254 13.4286 56.0643 14.1746 60.3167 15.6667C64.5691 17.1587 68.5603 19.3222 72.2905 22.1571L75.4238 19.0238C76.2445 18.2032 77.2889 17.7928 78.5572 17.7928C79.8254 17.7928 80.8699 18.2032 81.6905 19.0238C82.5111 19.8444 82.9214 20.8889 82.9214 22.1571C82.9214 23.4254 82.5111 24.4698 81.6905 25.2905L78.5572 28.4238C81.3921 32.1539 83.5556 36.1452 85.0476 40.3976C86.5397 44.65 87.2857 49.0889 87.2857 53.7143C87.2857 59.2349 86.2219 64.4392 84.0942 69.3272C81.9665 74.2152 79.0764 78.4855 75.4238 82.138C71.7713 85.7906 67.4995 88.6822 62.6085 90.8129C57.7175 92.9436 52.5147 94.0059 47 93.9999ZM47 85.0476C55.654 85.0476 63.0397 81.9888 69.1572 75.8714C75.2746 69.7539 78.3334 62.3682 78.3334 53.7143C78.3334 45.0603 75.2746 37.6746 69.1572 31.5571C63.0397 25.4397 55.654 22.3809 47 22.3809C38.3461 22.3809 30.9604 25.4397 24.8429 31.5571C18.7255 37.6746 15.6667 45.0603 15.6667 53.7143C15.6667 62.3682 18.7255 69.7539 24.8429 75.8714C30.9604 81.9888 38.3461 85.0476 47 85.0476Z" fill="#E4FFAA"/>
</g>
<defs>
<clipPath id="clip0_60_198">
<rect width="93.9999" height="94" fill="white"/>
</clipPath>
</defs>
</svg>
